<svg xmlns="http://www.w3.org/2000/svg" viewBox="0 0 169 58" width="169" height="58"><style>.a{fill:#2d3492}.b{fill:#202e80}.c{fill:#78c4ed}.d{fill:#4660ac}</style><path class="a" d="m28.3 16.7c-0.3-0.3-0.9-0.3-0.9 0 0.4 0.2 0.9 0.2 0.9 0z"></path><path class="a" d="m25.5 16.4c0.3-0.4 0.4 0.2 0.7 0 0-0.4-1.1-0.3-0.7 0z"></path><path class="a" d="m26.9 19.2c0.3-0.1 0.4-0.1 0.4-0.2 0.1 0.1 0.3 0 0.4 0-0.3 0.1-0.8 0.2-0.8 0.2z"></path><path class="a" d="m23.3 20.9c-0.4 0.3-0.5 0.5-0.7 0.7 0.1-0.1 0.2-0.2 0.2-0.2-0.1 0.1-0.2 0.2-0.1 0.3 0.1-0.2 0.3-0.4 0.6-0.7 0.1-0.1 0 0 0.2 0 0.3-0.3-0.3 0-0.2-0.1z"></path><path class="a" d="m13.4 25.2c-0.2 0.3-0.3 0.7-0.2 1.2 0.2-0.3 0.3-1 0.2-1.2z"></path><path class="a" d="m20 30.5c0.1 0.3 0.1 1 0.3 1.1-0.2-0.5 0-1-0.3-1.1z"></path><path class="a" d="m21.5 34.5c-0.4-0.7-0.9-1.9-1.2-2.6 0.1 0.8 0.7 2.1 1.2 2.6z"></path><path class="a" d="m25 36.5q0.3 0 0.5 0.2c0-0.2-0.6-0.5-0.5-0.2z"></path><path class="a" d="m23.5 46.2c1 0.5 2.1 0.6 2.7 0.6-1.2-0.1-1.6-0.4-2.7-0.6z"></path><path class="a" d="m35.2 46c0.3-0.1 0.9-0.2 0.9-0.3-0.2 0-0.8 0.2-0.9 0.3z"></path><path class="a" d="m39.5 30.4c-0.2 0.1-0.2 0-0.4 0 0.1 0.2-0.1 0.4-0.2 0.7 0.1 0 0.1 0.2 0.3 0.4 0.3-0.5 0.1-0.6 0.3-1.1z"></path><path class="a" d="m39.3 29.9c0-0.3 0-0.6-0.1-0.8q0 0.5 0.1 0.8z"></path><path class="a" d="m46.7 30c0.2 0 0.1 0.1 0.2 0.2 0.1-1.1 0.1-1.2-0.2-0.2z"></path><path class="a" d="m43.6 26.7c0.6 0.2 0.1-1-0.1-0.9 0.2 0.4 0.2 0.4 0.1 0.9z"></path><path class="a" d="m46.3 21.5c0-0.6-0.5-1.6-0.8-1.7 0.3 0.5 0.5 1.4 0.8 1.7z"></path><path class="a" d="m41.2 14.3c-0.6-0.4-1.2-0.7-1.5-0.8 0.2 0.3 1.2 0.8 1.5 0.8z"></path><path class="a" d="m39.5 12.6c-0.3-0.3-0.7-0.5-1.1-0.5 0.3 0.2 0.8 0.6 1.1 0.5z"></path><path class="a" d="m36 15.8c0.2 0.2 0.4 0.6 0.7 0.7-0.3-0.2-0.4-0.5-0.7-0.7z"></path><path class="a" d="m38.2 13.1c-0.2 0-0.9-0.5-1-0.3 0.3 0 1.1 0.6 1 0.3z"></path><path class="a" d="m34.9 11.6c0.8 0.1 1.2 0.4 0 0z"></path><path class="a" d="m34 11.4c-0.8-0.2-1.2-0.3-2.1-0.5 0.3 0.2 1.8 0.5 2.1 0.5z"></path><path class="a" d="m29.9 18.2c0.5-0.1 1.1-0.2 1.4-0.2-0.4 0-1.7 0.2-1.4 0.2z"></path><path class="a" d="m30.6 18.3c-0.4 0-1 0-0.8 0 0.3 0 0.4 0 0.5 0-0.1 0-0.6 0-0.5 0 0.4 0 0.7 0 0.8 0z"></path><path class="a" d="m31 12.1c-0.7-0.4-1.3-0.6-1.3-0.4-0.7-0.3-1.8-0.6-2-0.7q0.4 0.3 0.1 0.3c0.6 0.1 2.6 0.7 3.6 1.1 0.6 0.2 1.8 0.8 1.7 0.7 0.5 0.3 1.8 0.9 2.2 1.3 0.7 0.4 1.8 1.8 1.9 2.6-0.1-0.1-0.2-0.1-0.3-0.1-0.1-0.2 0.1-0.3-0.2-0.3 0.2 0.3-0.3-0.1-0.2 0 0.4 0.6 0.9 1 1.3 1.5 0 0.2-0.3-0.1-0.1 0.2 0.1 0 0.2 0.3 0.5 0.5 0.1 0.9 0.7 1.7 1 2.6-0.2 0.2-0.4-0.2-0.4 0 0.7 0.9 0.3 2.4 0.9 3.2 0-0.6-0.3-1.4-0.2-1.8 0.3 0.5 0.5 1.9 0.3 2.7-0.1 0-0.3-0.2-0.4 0.1 0.1 0.3 0.3-0.1 0.5 0.1-0.2 1.2 0.2 2.2-0.3 3-0.2-0.1-0.1-0.5-0.2-0.6-0.1 0.4-0.1 0.3 0 0.7-0.3 0.1-0.2-0.2-0.4-0.1 0 0.1-0.1 0.5 0.2 0.5 0-0.2 0.1-0.3 0.3-0.3-0.2 0.5 0 0.7-0.1 1.1 0.1-0.4 0.3 0.9 0.3 1.1 0.4 1.4-1.8 3.2-2.3 4.3 0.1 0.2 0 0.4 0.2 0.6-3.2 2.6-7 3.8-10.2 3-0.5-0.1-1.3-0.3-1.4-0.9 0 0.2 0.4 0 0.2-0.1-1.2 0.3-2.9-0.4-3.5-1.1-0.3-0.3-0.7-0.4-1.1-0.6-0.4-0.3-0.3-0.9-0.6-1.1-0.2-0.2-0.6-0.2-0.4-0.4 0.2 0 0.2 0.2 0.5 0.2-1.1-1.3-1.1-3.2-1.4-4.9 0.3-0.5 0-1.9 0.2-2.3 0 0.5 0 0.7 0 1 0.1-1.8 0.3-3.4 1.3-5.2 0 0.1-0.1 0.2-0.1 0.3-0.9 1.8-1.1 4.1-1.1 6 0.1 0.1 0.1 0.7 0.2 1.1-0.1 0.3 0.1 0.5 0.2 0.8 0.2 1.1 0.8 2.2 1.7 3.2 0.1 0.1 0-0.2 0.1-0.2 0.1 0.4 0.6 0.6 0.9 0.8-1.8-1.4-3-2.9-3-6.5 0-1.6 0.3-3.2 0.7-4.2 0 0 0 0 0-0.1 0.2-0.5 0.3-0.7 0.6-1.2 0-0.1-0.1 0.1 0 0 0.9-1.9 2.8-3.2 5-4 0.4-0.1 1.2-0.3 1.2-0.4-1.6 0.5-2.9 1.1-3.8 1.6 0.1 0.1 0.7-0.3 0.8-0.4-0.5 0.2-1.3 1.1-1.8 1.2 0.4-0.3 1.3-1.2 2-1.4 0.8-0.3 3-1.2 3-1.2 0 0 0.6-0.1 0.6-0.3 0.3-0.1 0.7-0.2 0.8-0.2-0.3 0-0.3 0.1-0.6 0.1 0-0.1-0.1-0.1-0.1-0.1 0.5-0.1 0.4-0.1 0.2 0 0.6 0 1.9 0.5 1.5-0.4-1.2-0.1-2.1 0.6-3.5 0.1 0.5-0.4 1.3-0.3 1.8-0.5-0.2-0.1-0.7 0-1-0.1 0.3-0.1 1.5-0.1 2-0.1-1.1-0.1-2.6-0.1-3.5 0.1-0.2-0.1-0.7-0.1-0.6-0.2 0.7-0.1 2.1-0.1 2.3-0.3-0.3 0-0.3-0.2-0.7-0.2-0.1 0.1 0 0.3-0.2 0.3-0.6-0.1-1.3-0.1-1.6 0.1-0.3-0.1 0.2 0-0.1-0.3-0.6 0-1.1 0-1.7 0.1q0.8 0 1.6 0.2c-0.6 0.1-0.6 0.3-1.2 0.3 0.2 0.2 0.6-0.2 0.7 0-0.5 0.2-0.9 0.2-1.3 0.3-0.3-0.1 0.2-0.2 0.4-0.2-0.8-0.1-0.2-0.1-1.3 0.1-0.3 0-0.7-0.1-0.9 0.2 0.6-0.1 0.1 0.1 0.6 0-0.3 0.9-3.4 1.9-4.9 3.3-1.7 1.6-2.4 3.7-3 5.6-0.7-1.3 1.4-3.1 1.4-4.9 1.6-1.4 2.8-2.4 4.6-3.1-0.1 0-0.2-0.1-0.4 0.1-0.3-0.7 1.4-0.6 1.4-1.4 0.7 0 1.4-0.4 2.3-0.4 0.1-0.4-0.3-0.2-0.2-0.5 0.3-0.1 1.2-0.4 1-0.5-1.4 0.4-2.8 0.7-3.6 0.8 0.4-0.1 1.9-0.8 0.8-0.4 0.1-0.3-0.8 0.2-1.1 0.3-0.2 0.1-0.2-0.1-0.2-0.1-0.3 0.1-1.2 0.7-1.1 0.6-0.7 0.5-1.2 0.5-2.1 1.2-0.3 0.3 0.2-0.1 0.4-0.2 0.2 0.2 1.2-0.7 1.4-0.5-1.1 0.6-1.8 1.1-2.3 1.7 0.2-0.2 0.3-0.2 0.3-0.2-1 0.9-1.8 1.2-2.4 2.7 0.4-0.8 0.8-0.5 1-1.2 0.1 0.6 0.8-1 0.9-0.4-1.4 1.8-3.1 3.5-2.6 5.8-0.2 0.4-0.5 0.9-0.7 0.5 0 1-0.2 2-0.4 2.9-0.2-0.7-0.3-1.4-0.5-2-0.3 1.3-0.2 3.5 0.2 4.8-0.2 0.4-0.1 1.6 0.2 2.4-0.1-0.3 0-0.7 0.1-0.3 0.3 1-0.1 1.4 0.4 2.2 0-0.8-0.4-1.9-0.2-2.5 0.2 1.4 0.4 2.1 0.9 2.9-0.2-0.6-0.4-1.2-0.4-1.8 0.5 1.3 1.6 4.5 2.3 4.8-0.3-0.8-0.3-0.2-0.6-0.8 0.1-0.1 0.4 0.2 0.1-0.2-0.2-0.7-0.2 0-0.3-0.2-0.1-0.7-0.6-0.7-0.5-1.4 0.1-0.4 0.2 0 0.3-0.1-0.1-0.6-0.3-0.1-0.5-0.3q-0.1-0.2-0.1-0.4c0.5-0.8-0.6-3-0.1-3.6 0.4 1.2 0.7 3.6 1 3.7 0.2 0.2-0.1 0.3 0 0.5 0.8 0.6 0.9 2.4 1.9 3.5-0.1-0.1-0.2-0.3-0.3-0.2 0.9 1.1 1.3 1.3 2 2.2 0.2 0 0-0.1 0-0.3 0.2 0.3 0.3 0 0.6 0.2 0 0.3 0.2 0.6 0.3 0.8-0.1 0-0.3-0.2-0.3-0.1 0.9 0.6 1.8 1.1 3.1 1.7-0.2-0.2-0.5-0.3-0.5-0.5 0.9 0.2 1.3 1 1.9 1-0.2-0.3-0.9-0.3-0.6-0.9 0.3 0.2 0.3-0.2 0.5-0.1 0.2 1.1 1 1 1.8 1.1 0.1 0.3-0.5-0.1-0.3 0.2 0.1 0.2 0.4 0.3 0.6 0.4 0.2-0.2 0.6 0 1.2 0 0.4 0.5 1.5 0.2 2.1 0.5 9-1 16.9-5.9 18.1-15.7-0.1 0.2-0.2 0.3-0.2 0.1 0 0.4-0.4 1.5-0.8 0.8 0.1-0.3 0-0.9 0.4-0.9-0.3-0.4-0.2-1.4 0.1-1.8 0.1 0.6 0.3-0.4 0.7-0.2-0.4-5.1-1.1-9.6-5.1-13.2-0.2 0-0.2 0.2-0.4 0 0-0.2-0.2-0.4-0.5-0.7-0.3 0.2 0.5 0.4 0.3 0.6-1.5-1-3.1-1.6-4.2-2.3-0.2-0.3-1.1-0.7-1.9-0.8 0.5 0.2 1.5 0.3 1.4 0.6-0.2 0-0.4 0-0.6-0.1-1-0.3-2-0.8-3.1-1.2-0.1 0 0.5 0.2 0.1 0-0.6-0.2-2-0.4-1-0.2-0.5-0.2-1.4-0.4-2.4-0.5-0.3-0.2 0.4 0 0.5 0 0.2 0-0.2-0.1-0.1-0.1 0.6 0 2.6 0.7 2.5 0.7 1.1 0.3 4 1.5 5.3 2.8-0.6-0.3-1.1-0.6-1.7-1-0.2-0.1-0.6-0.3-0.6-0.3 0 0 2.7 1.8 3.8 3 0.2 0.3 0.7 0.9 1 1.1 1.5 1.2 2.6 2.9 3.3 4.6 1.1 2.6 1.4 6.5 1 9.2-0.2 0-0.7 1.5-0.7 2.2-0.1-0.1-0.2 0-0.3-0.2 0 0.5-0.3 0.7-0.2 1.2-0.8 0.2-1 2.2-2.1 2.4-1.8 3-4.6 4.6-8.5 5.7-0.1-0.5 0.1-0.4-0.2-0.7-6.9 0.4-12.7-1.2-15.6-8.4 1.1-0.1 0.2 1.4 0.7 0.7 0.3 0.5 0 0.8 0.5 1-0.1 0.2-0.2 0-0.3 0.2 1.1 1.5 2.1 2.7 4.2 4.2 0.1-0.1 0.2-0.2 0.3-0.2 0.2 0.3 0.3 0.5 0.5 0.7 2.3 0.2 4.8 2.5 7 1.6-0.1 0.4 0.3 0.2 0.5 0.2-0.1-0.3-0.4-0.2-0.1-0.4 0.2 0.2 0.2 0 0.2 0.4 0.3-0.1 0.6 0.3 0.6-0.2-0.3 0.1-0.5 0.1-0.5-0.3 0.4 0.1 0.9 0 1.1-0.2-0.4-0.1-1.3 0.4-1.5-0.1q0.6-0.1 0.9 0.1c1.1-0.8 3.9-1.4 5.7-2.6-1.2 1.2-3.1 1.4-3.9 2.4 0.2 0 0.6-0.5 0.7 0q-0.4 0.2-0.9 0.3c-0.1-0.2 0-0.3-0.1-0.4-0.2 0.2-0.2-0.1-0.4-0.1 0 0.2-0.2 0.3-0.5 0.3 0.5 0.5-0.5 0.2-0.4 0.8 0.6-0.2 0.9-0.1 0.9-0.6 0.1 0 0.2 0.2 0.2 0.4 3.2-0.6 4.9-1.7 6.5-3.6q-0.3 0-0.6-0.4c0.1-0.4 1-1.1 1.2-1 0.1 0.1 0 0.2 0.2 0.3 0.2 0 0.4-0.6 0.7-0.2 0.3 0.4-0.4 0-0.2 0.4 0.9-0.6 1.7-2 2-3.3 1.2-0.6 1.2-2.9 1.8-3.5 0-0.9 0.5-2.3-0.1-3.9 0.1 2-0.1 4.4-1.2 6 0.3-1.3 1-2.6 0.8-4 0.2-0.2 0.3-1.4-0.1-1.6 0 0.6 0.2 1.8-0.3 2.2 0.5-1.2-0.6-5.2-1.1-7.3 0.4 1.1 1.3 2.9 1.2 3.9 0.5-0.8-0.5-2.7-0.6-3.8 0.7 1.2 1 3.1 1.4 4.5-0.1-2-0.9-4.1-1.9-5.9-0.3 0.3-0.6 0.1-0.9 0.2-0.1-0.4 0.3-0.1 0.2-0.5-0.3-0.3-1.1-1-1.2-1.3 0.1 0 0.2 0.2 0.3 0.2 0-0.8-0.6-0.3-0.6-0.9 0.7 0.1 1.1 1.3 1.6 1.4 0-0.3-0.5-0.6-0.6-1-0.6 0-1.1-1.6-2.2-2 0.1-0.1 0.2 0 0.3 0-1.3-1.1-1.8-1.5-3.3-2.7-0.3-0.1 0 0.3-0.3 0.2-1-0.9-2.5-1-3.7-2 0.2-0.1 0.7 0.2 1.2 0.2-0.1-0.3-0.9-0.1-1.6-0.5-0.2 0.3 0.2 0 0.3 0.5-0.3-0.2-0.5-0.4-0.8-0.4 0.1 0 0.4 0.1 0.1 0.1zm-1.2 5.9c0 0.2-0.6 0.2-1.1 0.2 0.2 0 0.8-0.3 1.1-0.2zm-2.9 0.3c0 0.3-0.7 0.4-0.8 0.4-0.3 0 0.5-0.3 0.8-0.4zm-2.6 1.1c0 0-0.4 0.3-0.7 0.3 0.1-0.1 0.5-0.3 0.7-0.3zm-10.1 4.2c0.1 0.1 0.1 0.2 0 0.2 0.1 0.2 0.1 0 0.2-0.1 0.2 0.6-0.1 0.6-0.1 0.8 0-0.2-0.2-0.6 0-0.9zm-0.2 0.5c0.1 0.3 0 1.3-0.3 0.8 0-0.4 0.2-0.6 0.3-0.8zm3.4 0.8c0.1 0 0.2 0 0.3-0.1-0.2-0.4 0.7-1.5 1.3-2.3 0.3 0.2 0.8-0.5 1-0.3 0-0.2 0.2-0.9 1-1.2-0.2 0.3 0.2 0.1 0.5-0.2 0.1 0.1-0.7 0.5-1 0.8 0.2 0 0.5-0.2 0.7-0.4-0.1 0.3-0.9 0.8-0.8 1-0.6 0.4-0.6 0.8-1.2 1.4-0.2 0-0.1-0.1 0.1-0.3-0.6 0.3-0.1 0.5-0.5 0.8-0.1 0 0-0.1-0.1-0.1-0.1 0-0.6 0.7-0.3 0.7-0.8 0.4 0 0.5-0.2 1-0.4 0.1-0.2-0.1-0.3-0.2-0.3 0.6-0.4 1.1-0.8 1.6-0.4-0.8 0.2-1.6 0.3-2.2zm4.5-2.5c-0.2 0.2-0.2 0.3-0.4 0.5 0 0 0.2-0.3 0.4-0.5zm-0.4 0.5c-0.1-0.1 0.4-0.6 0.5-0.8 0.1 0.1-0.4 0.5-0.5 0.8zm0.7-0.9c-0.1-0.1 0.4-0.5 0.5-0.6 0 0.1-0.4 0.5-0.5 0.6zm-6 2.6c0.5 0.4-0.3 1-0.5 1.3-0.2-0.3 0.2-0.8 0.5-1.3zm4.9-1.1c-0.1 0-0.2 0.3-0.2 0.1-0.1 0.1 0 0.2 0 0.3 0.1 0 0.1-0.3 0.2-0.3-0.2 0.6-0.8 1.4-1 2.2 0-0.7 0.6-2.2 1.2-2.9 0.1 0.2-0.2 0.4-0.2 0.6zm-4.4 4.6c0.2 0 0.2 0.2 0.1 0.4-0.3 0.1-0.3-0.2-0.1-0.4zm-0.1 1.7c0.2-0.2 0.5 0.6 0 0.6-0.3-0.3 0.2-0.6 0-0.6zm29.1-3.3c0-0.2-0.1-0.1-0.2-0.1-0.1-4-1.8-7.2-4.7-10.1 0.6 0.4 1.2 0.9 1.6 1.6 0.3 0.3 0.5 0.2 0.7 0.2-0.2 0.4 1 1.3 0.7 1.8 0.2 0.1 0.4 0 0.6 0.1 0.1 0.3 0.2 0.7-0.1 0.7 0.6 0.8 1.2 1.5 1.5 3-0.1 0.1-0.2-0.1-0.3 0 0.7 2.4 0.7 6.4-0.1 8.3 0.3-1.9 0.3-3.1 0.3-5.5zm-2.2 9.8c0.1-1.2 1.3-2.2 1.1-3.4 0.3 0.4 0.3-0.5 0.7-0.2-0.1 1.1-0.7 1.5-1 2.8-0.1-0.2-0.2-0.2-0.3-0.2-0.2 0.4 0.1 0.1 0.1 0.4q-0.1 0.5-0.4 0.8c0 0-0.1-0.1-0.2-0.2zm-11.5 9.8c0-0.1 0-0.1-0.1-0.2 1.2 0 1.6-0.6 2.5-0.4-0.4 0.5-1.2 0.3-2.4 0.6zm-4.7-1.2c2.1 0.3 3.8-0.1 6.3 0 0.5-1 1.9-0.4 1.9-1.3 3-0.7 5.8-4.2 7.9-7.1 0 0.2-0.1 0.3 0.1 0.4-0.6 0-0.6 1.5-1 2-0.2 0.3-0.4-0.1-0.6 0.2-0.4 0.8-1.1 2.2-2 2.1-0.4 1.5-2.4 1.8-3.2 3.1-0.3-0.2-0.9 0.5-1.2 0.1-0.5 0.9-2.6 1-3.5 1-0.6 0.4-1.6 0.4-2.2 0-0.8 0.5-1.7-0.2-2.5-0.1 0-0.1 0-0.3 0-0.4zm-4-1.8c0.9 1.2 2.6 1 3.5 1.9-0.5 0-2.8-0.3-3.2-1.3-0.2-0.1 0 0.5 0 0.5 0 0-1.5-1.3-2.8-1.3 0.4-0.9-0.6-0.6-0.4-1.2 1.1 0.3 1.5 1.8 2.9 1.4zm0.9-1.3c-0.5-0.7-1.3-0.1-1.3-1 0.6 0.5 1.1 0.1 1.3 1zm2.3 0.9c-0.1-0.2-0.3-0.3-0.6-0.3 0.1-0.5 0.8-0.3 0.6 0.3zm-8.1-3.1c0.2 0.6 1.1 0.8 0.9 1.6-0.3-0.4-0.6-0.6-1.1-1.2q0.2-0.2 0.2-0.4zm-0.3 0.3c-0.5-0.5-0.6-0.7-0.9-1.6 0.3-0.2 1.1 0.9 0.9 1.6zm-2.6-4.4c-0.2-0.5-0.4-0.5-0.4-1.1 0.1-0.1 0.2-0.1 0.2-0.2 0.1 0.6 0.5 0.8 0.2 1.3zm4.4-2c0.7 0.1 0.4 0.6 0.6 1-0.5-0.3-0.2-0.5-0.6-1zm7.8 7.6c-0.6-0.1-1.2 0-1.4-0.4 0.7-0.6 1.9 0.8 2.6 0.2-0.1 0.7 0.5 0.1 0.8 0.2-0.4 0.7-1.4 0.2-2 0zm10.1-3.1c0-0.4 0.6-0.7 0.9-1.1 0.1 0.5-0.4 0.6-0.9 1.1zm2.9-1.6c-0.2 0.3-0.6-0.3-0.8 0.2 0 0 0.2-0.6 0.4-0.9 0.4 0-0.2 0.3 0.4 0.7zm0.2-0.1q-0.1-0.1-0.2-0.3c0.1-0.1 0.2-0.3 0.3-0.4 0.2 0.3 0 0.5-0.1 0.7zm-0.1-0.7c-0.1-0.7 1.2-1.5 0.8-1.8 0.8 0.2-0.3 0.8-0.8 1.8zm0.9-2c0-0.1 0-0.4 0.3-0.5 0.2 0.2-0.1 0.3-0.3 0.5zm1-1.8c-0.1 0.1-0.2 0.2-0.2 0.4-0.4 0.1-0.1-0.5 0.2-0.4zm-2.5-0.2c-0.1-0.1-0.1-0.4 0.1-0.4 0.3 0.1 0.1 0.3-0.1 0.4zm0.6-0.9c-0.3-0.1-0.2-0.2-0.4-0.3-0.5 0.2 0.5 0.4 0.1 0.7-0.9-0.2-0.7-0.9-0.4-1.3 0.3 0.2 0.7 0.5 0.7 0.9zm0.3-0.7c-0.5 0-0.4-0.2-0.6-0.3 0.2-0.1 0.3-0.4 0.6-0.4 0.4 0.2 0.1 0.4 0 0.7zm-0.8-0.6c-0.4-0.1-0.1-0.5-0.3-0.7 0.3-0.2 0.2 0.3 0.3 0.7zm0.9-4.3c-0.6-0.1-0.6-0.7-0.4-0.8 0.6 0.2 0.1 0.5 0.4 0.8zm0-2c-0.3 0-0.2-0.3-0.3-0.4q-0.1 0.1-0.1 0.2c0.4 0.2 0.1 0.3 0.2 0.7-0.5 0-0.4-0.9-0.2-1 0-0.2-0.2-0.1-0.4-0.1 0-0.1 0-0.3-0.1-0.4 0.5-0.1 0.7 0.4 0.9 1zm-3-5.5c0.4 0.4 0.6 0.8 0.8 1.4 0.2 0 0.3 0.2 0.4 0.1 0-0.2-0.2 0-0.3-0.4 0-0.2 0.1 0 0.2 0 0 0-0.3-0.3-0.1-0.4 0.1 0.2 0.3 0.5 0.6 1-0.3-0.1 0.2 0.7 0.2 1-0.1-0.1-0.1-0.2-0.2-0.1-0.2-0.3-0.1-0.5-0.4-0.6 0.3 1.2 1.4 2.3 0.4 3.2-0.1-0.2-0.1-0.4-0.1-0.5 0.5-0.2 0-0.5 0.2-0.8-1-0.2-0.3-1.7-1.2-1.8 0-0.4 0-0.5-0.3-1 0.2 0 0.3 0.3 0.5 0.6 0.2-0.8-0.7-1.5-1.1-2.2 0.1-0.5 0.3 0.2 0.4 0.5zm2.1 3.3c-0.1 0-0.2 0.1-0.2 0.1-0.1-0.1-0.3-0.4-0.2-0.5 0.2-0.1 0.2 0.3 0.4 0.4zm0.3 1.1c-0.2 0-0.4-0.6-0.3-0.6 0.2-0.1 0.1 0.3 0.3 0.6zm-2.8-5.4c0.1 0.3-0.3-0.2-0.4-0.4 0 0 0.2 0.2 0.4 0.4zm-0.9-0.9c0 0 0.1 0 0.1 0.1q-0.1-0.1-0.2-0.2c-0.2-0.2-0.1-0.1 0.1 0.1zm-2.1-1.6c0.4 0.2-0.3-0.2-0.4-0.3-0.1-0.1 0.3 0.3 0.4 0.3z"></path><path class="a" d="m26.3 15.9c0.3 0 0.8 0 1 0-0.6-0.1-2.7-0.2-1 0z"></path><path class="a" d="m20.5 24.8c0-0.1 0.1-0.2 0.1-0.2 0.1-0.2 0.2-0.4 0.1-0.5 0 0.3-0.2 0.4-0.2 0.7z"></path><path class="a" d="m17.8 43.4c-0.1-0.2-0.3-0.4-0.5-0.6 0 0.1 0 0.2 0.1 0.2 0.2 0.4 1.4 1.3 0.4 0.4z"></path><path class="a" d="m25 36.2c-0.1 0.1-0.1 0-0.2-0.1 0 0.1 0 0.2-0.1 0.1-0.1 0 0.1 0 0 0.2 0.1 0 0.4-0.1 0.3-0.2z"></path><path class="a" d="m24.7 36.1c0-0.1 0.1 0.1 0 0z"></path><path class="a" d="m25.7 36.7c0.3-0.1 0.6 0.2 0.8 0.1-0.3-0.1-0.5-0.3-0.7-0.2 0.1 0 0.1 0.1 0 0.1 0-0.1-0.2-0.1-0.1 0z"></path><path class="a" d="m31.6 37.2c-0.1-0.2 0.1-0.2 0.1-0.2 0.1 0.1 0 0.1 0 0.2 0.3-0.1 0.5 0 0.6-0.2 0.7 0.4 1.7-0.7 2.3-0.5-0.1-0.2 0.2-0.1 0.2-0.3 1-0.1 1.2-0.9 2.4-1.3-0.6-0.1-0.2-0.6 0.1-0.6-0.1 0.2 0.1 0.1 0.1 0.3 0.2-0.3 1.4-1.2 1.2-1.6-0.2 0.3-0.4 0.9-0.7 0.8 0.4-0.6 0.9-1.4 0.7-1.7 0 0.1-0.2 0.2-0.3 0.2 0 0.3 0 0.4-0.1 0.6q-0.1 0-0.1 0.1c-0.2 0-0.1-0.2-0.2-0.1 0.1 0-0.2 0.4-0.2 0.6-0.2 0.1-0.3 0.1-0.4 0.1-0.4 0.7-0.7 1.1-1.3 1.7 0 0-0.1 0-0.2 0-0.2 0.2-0.3 0.4-0.5 0.6-0.2-0.2-0.2 0.1-0.4 0.1-0.1 0-0.2 0-0.1-0.1-0.6 0.4-1.2 0.6-1.8 0.8 0.1 0.2-0.2 0.4-0.3 0.2-0.2-0.2 0-0.2 0-0.3-0.3 0.2-0.5 0.3-0.9 0.3-0.8 0.3-2.3-0.3-3 0.2 0 0-0.1-0.1-0.1 0 0.9 0.3 1.6 0.2 2.9 0.1z"></path><path class="a" d="m42.3 15.6c0 0.1-0.1 0-0.2 0 2.4 1.7 4.3 4.1 5.3 8.2 0.3-0.9-0.3-1.6-0.5-2.3 0 0 0.1 0 0.1 0-0.5-1.3-0.9-2.5-1.6-3-0.6-1.4-2.2-2.8-3.6-3.7-0.2 0 0.4 0.3 0.2 0.4-0.2-0.2-0.4-0.5-0.4-0.4 0.1 0.1-0.1 0-0.1 0.1 0.3 0.4 0.5 0.4 0.8 0.7z"></path><path class="a" d="m35.3 15c0 0.3 0.7 0.6 0.7 0.8 0.1-0.1-0.5-0.4-0.7-0.8z"></path><path class="a" d="m24.5 36.2c0-0.3-0.5-0.4-0.5-0.2 0-0.1-0.1-0.1-0.1 0 0.3 0.2 0.4 0 0.6 0.2z"></path><path class="a" d="m42.4 41.8c0-0.1 0.1-0.2 0.1-0.2q-0.1 0.1-0.1 0.1z"></path><path class="a" d="m42.5 41.8c0 0-0.1 0-0.1 0q-0.2 0.2-0.4 0.4 0.3-0.3 0.5-0.4z"></path><path class="a" d="m47.7 25.2c-0.1 0 0 0.1-0.1 0.2 0.2 1.3 0.3 2.4 0.1 3.4 0 0 0.2-0.1 0.2 0-0.4 1.3-0.2 2.1-0.4 3.1-0.3 0.4-0.7 1.4-0.4 1.5-0.1 0-0.1 0.1-0.2 0.2-0.9 3.1-2.5 5.6-4.4 8 1.3-1 2.6-3.2 2.5-3.4 0.1 0 0.1 0 0.2 0 2.2-3.4 2.5-6.1 3-9.1-0.1 0-0.2 0.2-0.2 0 0.3-0.8-0.5-5.1-0.5-5.1 0 0 0 0.8 0.2 1.2z"></path><path class="b" d="m67.7 43.4h2.2c0.3 0 0.6 0 0.8 0.1q0.4 0.1 0.7 0.2c0.2 0.1 0.4 0.2 0.5 0.4q0.2 0.3 0.2 0.8 0 0.5-0.3 0.8-0.3 0.4-0.7 0.5 0.3 0.1 0.5 0.2 0.3 0.1 0.4 0.3 0.2 0.2 0.3 0.5c0.1 0.2 0.1 0.3 0.1 0.5q-0.1 0.5-0.2 0.8c-0.2 0.2-0.4 0.4-0.6 0.5q-0.3 0.2-0.7 0.3c-0.3 0-0.6 0.1-0.8 0.1h-2.5v-6zm1.3 2.5h1c0.1 0 0.2 0 0.3-0.1 0.1 0 0.2 0 0.2-0.1 0.1 0 0.1-0.1 0.2-0.2 0.1-0.1 0.1-0.2 0.1-0.3 0-0.1 0-0.2-0.1-0.3q0-0.1-0.2-0.2-0.1-0.1-0.3-0.1c-0.1 0-0.2 0-0.3 0h-0.9v1.3zm0 2.4h1.2c0.1 0 0.2 0 0.3 0q0.2-0.1 0.3-0.1 0.1-0.1 0.2-0.2 0-0.2 0.1-0.4 0-0.2-0.2-0.3-0.1-0.1-0.2-0.2c-0.1 0-0.2-0.1-0.3-0.1-0.2 0-0.3 0-0.4 0h-1v1.3z"></path><path class="b" d="m77.4 43.4h1.1l2.5 6h-1.4l-0.6-1.3h-2.3l-0.5 1.3h-1.4zm0.5 1.8l-0.8 1.8h1.5z"></path><path class="b" d="m83.8 43.4h2.3q0.5 0.1 0.8 0.1c0.3 0.1 0.6 0.2 0.8 0.3q0.3 0.2 0.5 0.6 0.1 0.4 0.1 0.9c0 0.3 0 0.6-0.1 0.8-0.2 0.3-0.3 0.4-0.5 0.6-0.2 0.1-0.4 0.2-0.7 0.3q-0.4 0.1-0.8 0.1h-1v2.3h-1.3v-6zm1.3 2.6h0.9q0.2 0 0.3 0c0.1-0.1 0.2-0.1 0.3-0.2q0.1 0 0.2-0.2 0.1-0.1 0.1-0.3 0-0.3-0.1-0.4-0.2-0.2-0.3-0.2-0.2-0.1-0.4-0.1c-0.1 0-0.3 0-0.4 0h-0.6v1.4z"></path><path class="b" d="m92.5 44.6h-1.7v-1.2h4.8v1.2h-1.7v4.8h-1.3v-4.8z"></path><path class="b" d="m98.4 43.4h1.3v6h-1.3z"></path><path class="b" d="m106.1 44.9c-0.1-0.1-0.3-0.2-0.5-0.3-0.1 0-0.3 0-0.5 0-0.2 0-0.2 0-0.3 0-0.1 0-0.2 0-0.3 0.1q-0.1 0.1-0.2 0.2-0.1 0.1-0.1 0.3c0 0.1 0.1 0.3 0.2 0.4q0.2 0.1 0.5 0.3c0.2 0.1 0.4 0.1 0.7 0.2q0.3 0.1 0.6 0.3 0.4 0.1 0.5 0.5 0.2 0.3 0.2 0.8 0 0.5-0.2 0.8-0.1 0.4-0.5 0.7-0.3 0.2-0.7 0.3-0.4 0.2-0.9 0.2c-0.2 0-0.7-0.1-1-0.2q-0.5-0.2-1-0.6l1-1c0.1 0.2 0.3 0.3 0.5 0.4 0.2 0.1 0.4 0.2 0.6 0.2 0.3 0 0.2 0 0.4-0.1q0.1 0 0.2-0.1 0.2-0.1 0.2-0.2 0.1-0.1 0.1-0.3c0-0.1-0.1-0.3-0.2-0.4-0.1-0.1-0.3-0.2-0.5-0.3-0.2 0-0.5-0.1-0.7-0.2q-0.3-0.1-0.6-0.2-0.3-0.2-0.6-0.5c-0.1-0.2-0.2-0.5-0.2-0.9 0-0.3 0.1-0.6 0.2-0.8q0.2-0.4 0.5-0.6 0.3-0.3 0.8-0.4 0.4-0.1 0.8-0.1c0.3 0 0.7 0 1 0.1q0.5 0.1 0.9 0.5z"></path><path class="b" d="m111.4 44.6h-1.7v-1.2h4.7v1.2h-1.7v4.8h-1.3z"></path><path class="b" d="m125.8 45q-0.1-0.2-0.4-0.4-0.3-0.1-0.7-0.1-0.4 0-0.7 0.1c-0.2 0.1-0.4 0.3-0.5 0.4q-0.3 0.3-0.4 0.7-0.1 0.3-0.1 0.7 0 0.5 0.1 0.8 0.1 0.4 0.4 0.6 0.2 0.3 0.5 0.5 0.3 0.1 0.7 0.1 0.3 0 0.7-0.2 0.3-0.2 0.5-0.5l1.1 0.8q-0.4 0.6-0.9 0.8-0.6 0.3-1.2 0.3c-0.5 0-0.9-0.1-1.3-0.2q-0.6-0.3-1-0.6-0.5-0.5-0.7-1-0.3-0.6-0.3-1.4c0-0.4 0.1-0.9 0.3-1.3 0.2-0.4 0.4-0.7 0.7-1q0.4-0.4 1-0.6c0.4-0.1 0.8-0.2 1.3-0.2 0.4 0 0.3 0 0.5 0.1 0.2 0 0.4 0 0.5 0.1q0.3 0.1 0.5 0.3 0.3 0.2 0.5 0.4z"></path><path class="b" d="m129.9 43.4h1.3v2.3h2.6v-2.3h1.3v6h-1.3v-2.6h-2.6v2.6h-1.3z"></path><path class="b" d="m143.6 47.1q0 0.6-0.2 1c-0.1 0.3-0.2 0.6-0.5 0.8-0.2 0.2-0.5 0.4-0.7 0.6q-0.6 0.1-1.1 0.2c-0.4 0-0.8-0.1-1.1-0.2q-0.5-0.2-0.8-0.6c-0.2-0.2-0.4-0.5-0.5-0.8q-0.2-0.4-0.2-1v-3.7h1.3v3.7q0.1 0.3 0.1 0.5 0.1 0.2 0.3 0.4 0.2 0.2 0.3 0.3c0.2 0.1 0.4 0.1 0.5 0.1q0.3 0 0.5-0.1 0.3-0.1 0.4-0.3 0.2-0.2 0.3-0.4 0-0.2 0-0.5v-3.7h1.4v3.7z"></path><path class="b" d="m147 43.4h2.3q0.5 0.1 0.9 0.1c0.3 0.1 0.5 0.2 0.7 0.3q0.3 0.2 0.5 0.6 0.2 0.4 0.1 0.9c0 0.3-0.1 0.7-0.3 1q-0.3 0.5-0.9 0.6l1.5 2.5h-1.6l-1.2-2.4h-0.7v2.4h-1.3zm1.3 2.5h1.2q0.2 0 0.4-0.1 0.1 0 0.2-0.2 0.1-0.1 0.1-0.3 0-0.3-0.1-0.4c0-0.1-0.1-0.2-0.2-0.2q-0.1-0.1-0.3-0.1c-0.2 0-0.3 0-0.4 0h-0.9z"></path><path class="b" d="m158.6 45q-0.2-0.2-0.5-0.4-0.3-0.1-0.6-0.1-0.4 0-0.7 0.1c-0.2 0.1-0.4 0.3-0.6 0.4q-0.2 0.3-0.3 0.7-0.2 0.3-0.2 0.7 0 0.5 0.2 0.8 0.1 0.4 0.3 0.6 0.3 0.3 0.6 0.5 0.3 0.1 0.6 0.1 0.4 0 0.7-0.2 0.3-0.2 0.6-0.5l1.1 0.8q-0.4 0.6-1 0.8-0.5 0.3-1.2 0.3c-0.4 0-0.9-0.1-1.2-0.2q-0.6-0.3-1.1-0.6-0.4-0.5-0.6-1-0.3-0.6-0.3-1.4c0-0.4 0.1-0.9 0.3-1.3 0.1-0.4 0.3-0.7 0.6-1q0.5-0.4 1.1-0.6c0.4-0.1 0.8-0.2 1.2-0.2 0.5 0 0.4 0 0.6 0.1 0.1 0 0.3 0 0.5 0.1q0.3 0.1 0.5 0.3 0.3 0.2 0.5 0.4z"></path><path class="b" d="m162.7 43.4h1.3v2.3h2.6v-2.3h1.3v6h-1.3v-2.6h-2.6v2.6h-1.3z"></path><path class="a" d="m67.5 27.6q0-2.7 0.9-4.9c0.6-1.4 1.4-2.7 2.5-3.8q1.6-1.6 3.8-2.5c1.5-0.6 3.1-0.9 4.9-0.9 1.7 0 3.3 0.3 4.8 0.9 1.5 0.6 2.8 1.4 3.9 2.5q1.5 1.6 2.5 3.8c0.5 1.5 0.9 3.1 0.9 4.9q0 2.6-0.9 4.9c-0.6 1.4-1.5 2.7-2.5 3.8q-1.7 1.6-3.9 2.5c-1.5 0.6-3.1 0.9-4.8 0.9q-2.7 0-4.9-0.9c-1.5-0.6-2.8-1.5-3.8-2.5q-1.6-1.6-2.5-3.8c-0.6-1.5-0.9-3.2-0.9-4.9zm3 0q0 1.9 0.6 3.7 0.7 1.7 1.8 2.9c0.8 0.9 1.8 1.5 2.9 2q1.7 0.8 3.8 0.8c1.4 0 2.6-0.3 3.8-0.8 1.1-0.5 2.1-1.1 2.9-2q1.2-1.3 1.8-2.9c0.4-1.2 0.6-2.4 0.6-3.7 0-1.3-0.2-2.5-0.6-3.7q-0.6-1.7-1.8-2.9c-0.8-0.9-1.8-1.6-2.9-2q-1.7-0.8-3.8-0.8c-1.4 0-2.6 0.3-3.8 0.8-1.1 0.4-2.1 1.1-2.9 2q-1.1 1.3-1.8 2.9c-0.4 1.2-0.6 2.4-0.6 3.7z"></path><path class="a" d="m94.9 1.5h2.9v37.5h-2.9z"></path><path class="a" d="m102.1 7q0-0.9 0.7-1.6c0.4-0.4 0.9-0.6 1.6-0.6 0.7 0 1.1 0.2 1.6 0.6 0.4 0.4 0.7 1 0.7 1.6 0 0.7-0.2 1.2-0.7 1.6-0.4 0.4-0.9 0.7-1.6 0.7-0.7 0-1.2-0.2-1.6-0.7-0.5-0.4-0.7-0.9-0.7-1.6zm0.8 9.1h2.9v22.9h-2.9z"></path><path class="a" d="m109.1 16.1h3.4l7.7 19.7 7.4-19.7h3.1l-9.1 22.9h-3.1z"></path><path class="a" d="m152.2 34.7c-1.2 1.8-2.6 3-4.3 3.8-1.7 0.7-3.6 1.2-5.6 1.2-2.1 0-3.4-0.3-4.8-1-1.4-0.5-2.6-1.4-3.7-2.5q-1.5-1.6-2.3-3.8c-0.5-1.5-0.8-3.1-0.8-4.9 0-1.8 0.3-3.3 0.8-4.8q0.8-2.1 2.4-3.7 1.5-1.7 3.6-2.6 2.1-0.9 4.6-0.9c1.7 0 3.3 0.3 4.7 0.9q2 0.9 3.3 2.4c0.9 1.1 1.6 2.2 2.1 3.5q0.7 1.9 0.7 3.9v2.1h-19.3q0 0.9 0.4 2.4 0.4 1.5 1.4 2.9 1 1.4 2.6 2.4 1.7 0.9 4.3 0.9c1.7 0 3-0.3 4.4-1.1 1.5-0.7 2.5-1.7 3.3-2.9zm-2.2-9.1q0-1.5-0.7-2.9-0.6-1.3-1.7-2.3c-0.7-0.7-1.5-1.3-2.5-1.6-1-0.4-2-0.6-3.1-0.6q-2.4 0-4 1-1.6 1-2.6 2.3-0.9 1.3-1.3 2.5c-0.3 0.8-0.5 1.4-0.5 1.6h16.4z"></path><path class="a" d="m167.8 18.8h-6.5v14.9q0 1.6 0.9 2.4 0.8 0.9 2.3 0.9c1 0 1.2-0.1 1.7-0.2 0.6-0.2 1.2-0.4 1.7-0.6l0.2 2.7c-0.5 0.2-1.2 0.3-1.9 0.5-0.7 0.2-1.4 0.3-1.9 0.3q-1.6-0.1-2.8-0.5c-0.7-0.3-1.3-0.7-1.8-1.3-0.5-0.5-0.8-1.1-1-1.8q-0.4-1.1-0.4-2.3v-15h-4.9v-2.6h4.9v-6.6h3v6.6h6.5z"></path><path class="c" d="m52.6 5.5l4.4-4.5h-55.2l4.4 4.5z"></path><path class="a" d="m52.6 5.5v46.3l4.4 4.4v-55.2z"></path><path class="d" d="m6.2 51.8v-46.3l-4.4-4.5v55.2z"></path><path class="b" d="m6.2 51.8l-4.4 4.4h55.2l-4.4-4.4z"></path></svg>